<svg width="129" height="52" viewBox="0 0 129 52" fill="none" xmlns="http://www.w3.org/2000/svg">
<g clip-path="url(#clip0_65_7602)">
<path d="M8.79346 8.85254H0C0 23.5214 11.8118 35.4124 26.3827 35.4124V26.5599C16.6695 26.5599 8.79346 18.6333 8.79346 8.85254Z" fill="white"/>
<path d="M26.3828 17.705C31.2392 17.705 35.1762 13.7416 35.1762 8.85249C35.1762 3.96339 31.2392 0 26.3828 0C21.5263 0 17.5893 3.96339 17.5893 8.85249C17.5893 13.7416 21.5263 17.705 26.3828 17.705Z" fill="white"/>
<path d="M43.7223 6.61103H46.9355L46.945 5.44824H42.4413V12.2814H43.7318L43.7223 6.61103Z" fill="white"/>
<path d="M50.7927 12.3771C51.4582 12.3771 52.069 12.224 52.6061 11.9225C53.1432 11.6211 53.571 11.2 53.8752 10.6688C54.1818 10.1377 54.3363 9.52996 54.3363 8.86482C54.3363 8.19969 54.1818 7.59198 53.8752 7.06083C53.5686 6.52968 53.1408 6.1062 52.6061 5.80713C52.069 5.50566 51.4606 5.35254 50.7927 5.35254C50.1249 5.35254 49.5165 5.50566 48.9794 5.80713C48.4423 6.10859 48.0145 6.53207 47.7103 7.06562C47.4037 7.59916 47.2492 8.20448 47.2492 8.86482C47.2492 9.52517 47.4037 10.1305 47.7103 10.664C48.0169 11.1976 48.4423 11.6235 48.9794 11.9225C49.5165 12.224 50.1249 12.3771 50.7927 12.3771ZM49.652 6.85028C49.9871 6.65409 50.3721 6.55361 50.7927 6.55361C51.2134 6.55361 51.596 6.65409 51.9335 6.85028C52.2686 7.04647 52.5372 7.32401 52.7297 7.67572C52.9222 8.02743 53.0196 8.42938 53.0196 8.86482C53.0196 9.30027 52.9222 9.70222 52.7297 10.0539C52.5372 10.4056 52.271 10.6832 51.9335 10.8794C51.5984 11.0756 51.2134 11.176 50.7927 11.176C50.3721 11.176 49.9894 11.0756 49.652 10.8794C49.3169 10.6832 49.0483 10.4056 48.8582 10.0539C48.6657 9.70222 48.5682 9.30266 48.5682 8.86482C48.5682 8.42698 48.6657 8.02743 48.8582 7.67572C49.0507 7.32401 49.3169 7.04647 49.652 6.85028Z" fill="white"/>
<path d="M56.8437 10.3415H58.253C58.8187 10.3415 59.3201 10.2434 59.7432 10.0472C60.1686 9.851 60.4965 9.56389 60.7247 9.19544C60.9505 8.82698 61.0669 8.38914 61.0669 7.89388C61.0669 7.39862 60.9528 6.9536 60.7247 6.58754C60.4989 6.22148 60.1686 5.93676 59.7432 5.74057C59.3201 5.54678 58.821 5.44629 58.253 5.44629H55.5342V12.2795H56.8437V10.3391V10.3415ZM56.8437 6.61386H58.1984C58.707 6.61386 59.0991 6.72631 59.3581 6.94643C59.6172 7.16654 59.7479 7.48475 59.7479 7.89628C59.7479 8.3078 59.6172 8.62601 59.3581 8.84612C59.0967 9.06624 58.707 9.17869 58.1984 9.17869H56.8437V6.61386Z" fill="white"/>
<path d="M63.5861 11.9245C64.1232 12.2259 64.7317 12.3791 65.3995 12.3791C66.0673 12.3791 66.6757 12.2259 67.2128 11.9245C67.75 11.623 68.1777 11.2019 68.4819 10.6708C68.7885 10.1396 68.943 9.53191 68.943 8.86678C68.943 8.20164 68.7885 7.59393 68.4819 7.06278C68.1754 6.53163 67.7476 6.10815 67.2128 5.80908C66.6757 5.50762 66.0673 5.35449 65.3995 5.35449C64.7317 5.35449 64.1232 5.50762 63.5861 5.80908C63.049 6.11054 62.6212 6.53403 62.317 7.06757C62.0104 7.60111 61.856 8.20643 61.856 8.86678C61.856 9.52713 62.0104 10.1324 62.317 10.666C62.6236 11.1995 63.049 11.6254 63.5861 11.9245ZM64.2587 6.84985C64.5938 6.65365 64.9788 6.55317 65.3995 6.55317C65.8201 6.55317 66.2028 6.65365 66.5403 6.84985C66.8754 7.04604 67.1439 7.32357 67.3364 7.67528C67.5289 8.02699 67.6264 8.42894 67.6264 8.86438C67.6264 9.29983 67.5289 9.70178 67.3364 10.0535C67.1439 10.4052 66.8777 10.6827 66.5403 10.8789C66.2052 11.0751 65.8201 11.1756 65.3995 11.1756C64.9788 11.1756 64.5962 11.0751 64.2587 10.8789C63.9236 10.6827 63.6551 10.4052 63.4649 10.0535C63.2724 9.70178 63.175 9.30222 63.175 8.86438C63.175 8.42655 63.2724 8.02699 63.4649 7.67528C63.6574 7.32357 63.9236 7.04604 64.2587 6.84985Z" fill="white"/>
<path d="M75.4025 12.2814H76.6194V11.1186H75.6853V5.44824H70.8323L70.7563 7.63265C70.7206 8.74998 70.6184 9.62087 70.4568 10.219C70.2976 10.8052 70.0338 11.0995 69.6511 11.1162H69.3208L69.3113 12.279H75.4049L75.4025 12.2814ZM74.3925 6.61103V11.1162H71.272C71.4692 10.8554 71.6166 10.4583 71.7116 9.9343C71.8162 9.3553 71.8851 8.61839 71.916 7.74989L71.9612 6.60864H74.3948L74.3925 6.61103Z" fill="white"/>
<path d="M47.3419 23.2584C47.7982 22.8876 48.0288 22.354 48.0288 21.6746C48.0288 20.9951 47.8172 20.5237 47.4037 20.1768C46.9926 19.8347 46.3841 19.66 45.5975 19.66H43.7342V18.1144H47.5962V16.9803H42.4437V23.8135H45.4145C46.2439 23.8135 46.8927 23.6269 47.3467 23.2584H47.3419ZM45.3456 20.7295C46.2629 20.7295 46.7097 21.0525 46.7097 21.7128C46.7097 22.0502 46.598 22.3014 46.3699 22.4785C46.1394 22.6555 45.7947 22.7464 45.3479 22.7464H43.7342V20.7295H45.3479H45.3456Z" fill="white"/>
<path d="M54.1557 18.1336V16.9803H49.3169V23.8135H54.284V22.6579H50.6264V20.9113H53.7564V19.7749H50.6264V18.1336H54.1557Z" fill="white"/>
<path d="M58.8164 22.4646C58.5027 22.656 58.1011 22.7541 57.6257 22.7541C57.293 22.7541 56.9532 22.7015 56.6133 22.5986C56.2734 22.4957 55.9621 22.3426 55.684 22.1488L55.6318 22.1105L55.1992 23.125L55.2349 23.1489C55.608 23.4001 56.0191 23.5915 56.4588 23.7183C56.8961 23.8451 57.3405 23.9073 57.7731 23.9073C58.2769 23.9073 58.7475 23.826 59.1753 23.6633C59.6055 23.5006 59.9524 23.2637 60.2115 22.9599C60.4729 22.6536 60.6036 22.2876 60.6036 21.8737C60.6036 21.4597 60.4896 21.1296 60.2638 20.8377C60.0618 20.5769 59.7885 20.3759 59.4462 20.2443C59.7029 20.1103 59.9097 19.9285 60.0641 19.706C60.2424 19.4476 60.3327 19.1437 60.3327 18.8016C60.3327 18.4068 60.2067 18.0575 59.9596 17.7632C59.7148 17.4713 59.3821 17.2464 58.9709 17.0909C58.5621 16.9354 58.1082 16.8564 57.6234 16.8564C57.2502 16.8564 56.87 16.9043 56.4945 16.9976C56.119 17.0909 55.7577 17.2345 55.4202 17.4211L55.3798 17.4426L55.7981 18.5552L55.8528 18.5217C56.119 18.359 56.4065 18.2322 56.7107 18.1484C57.0126 18.0647 57.3096 18.0216 57.5948 18.0216C58.0084 18.0216 58.353 18.1054 58.6168 18.2728C58.8782 18.4379 59.0042 18.6604 59.0042 18.9571C59.0042 19.2036 58.9115 19.395 58.719 19.5385C58.5265 19.6845 58.2532 19.7586 57.9086 19.7586H56.4398V20.8449H58.0012C58.4029 20.8449 58.719 20.919 58.9448 21.0674C59.1658 21.2109 59.2727 21.4167 59.2727 21.6942C59.2727 22.0244 59.123 22.2756 58.8117 22.4646H58.8164Z" fill="white"/>
<path d="M63.258 18.1431H66.4712L66.4807 16.9803H61.9771V23.8135H63.2675L63.258 18.1431Z" fill="white"/>
<path d="M72.7431 20.7271C72.9689 20.3586 73.0854 19.9208 73.0854 19.4255C73.0854 18.9303 72.9713 18.4853 72.7431 18.1192C72.5173 17.7531 72.187 17.4684 71.7616 17.2722C71.3386 17.0784 70.8395 16.9803 70.2715 16.9803H67.5526V23.8135H68.8621V21.8731H70.2715C70.8371 21.8731 71.3386 21.775 71.7616 21.5789C72.187 21.3827 72.515 21.0956 72.7431 20.7271ZM68.8621 18.1431H70.2168C70.7254 18.1431 71.1175 18.2556 71.3766 18.4757C71.6356 18.6958 71.7663 19.014 71.7663 19.4255C71.7663 19.8371 71.6356 20.1553 71.3766 20.3754C71.1151 20.5955 70.7254 20.708 70.2168 20.708H68.8621V18.1431Z" fill="white"/>
<path d="M73.0331 23.8135H74.3901L75.0294 22.256H78.1998L78.8486 23.8135H80.2247L77.2516 16.9803H75.9967L73.0331 23.8135ZM75.481 21.1697L76.6146 18.4207L77.7578 21.1697H75.481Z" fill="white"/>
<path d="M82.568 20.9305H85.8144V23.8135H87.124V16.9803H85.8144V19.7557H82.568V16.9803H81.2585V23.8135H82.568V20.9305Z" fill="white"/>
<path d="M90.1779 21.6458V16.9803H88.8851V23.8135H90.0853L93.4886 19.1552V23.8135H94.7791V16.9803H93.5789L90.1779 21.6458Z" fill="white"/>
<path d="M98.7432 21.6315C99.2756 21.6315 99.8436 21.5191 100.431 21.299V23.8111H101.731V16.978H100.431V20.1098C99.9481 20.3324 99.43 20.4472 98.8906 20.4472C98.4129 20.4472 98.0421 20.3252 97.7878 20.0859C97.5359 19.8467 97.4075 19.495 97.4075 19.038V16.9756H96.1075V19.172C96.1075 19.9591 96.3381 20.5716 96.7968 20.9951C97.2531 21.4162 97.9066 21.6291 98.7456 21.6291L98.7432 21.6315Z" fill="white"/>
<path d="M104.804 20.9305H108.05V23.8135H109.36V16.9803H108.05V19.7557H104.804V16.9803H103.494V23.8135H104.804V20.9305Z" fill="white"/>
<path d="M118.747 16.9803H117.457V23.8135H118.747V16.9803Z" fill="white"/>
<path d="M115.983 19.8131C115.558 19.4447 114.945 19.2581 114.158 19.2581H112.413V16.9803H111.123V23.8135H113.963C114.8 23.8135 115.458 23.6101 115.924 23.2106C116.392 22.8086 116.627 22.2201 116.627 21.464C116.627 20.708 116.411 20.184 115.983 19.8131ZM112.413 20.3156H113.906C114.854 20.3156 115.315 20.6984 115.315 21.4832C115.315 21.8947 115.194 22.2105 114.954 22.4234C114.712 22.6388 114.36 22.7464 113.906 22.7464H112.413V20.3156Z" fill="white"/>
<path d="M126.167 23.8135L123.778 20.2629L125.991 16.9803H124.456L122.954 19.1863L121.471 17.0019L121.454 16.9803H119.938L122.169 20.3108L119.79 23.8135H121.307L122.956 21.4042L124.613 23.8135H126.167Z" fill="white"/>
<path d="M46.8975 31.7832C47.1542 31.6492 47.3585 31.465 47.5035 31.2377C47.6723 30.9745 47.7578 30.6563 47.7578 30.295C47.7578 29.728 47.5439 29.2854 47.1256 28.9743C46.7097 28.6681 46.1275 28.5126 45.3907 28.5126H42.439V35.3457H45.5666C46.3699 35.3457 46.9949 35.1759 47.4227 34.8433C47.8553 34.5083 48.0739 34.0298 48.0739 33.4269C48.0739 33.001 47.9598 32.6397 47.7388 32.3526C47.5392 32.0966 47.2587 31.9052 46.8975 31.7832ZM46.1441 31.1564C45.9516 31.3095 45.6616 31.386 45.2885 31.386H43.7295V29.5797H45.2885C45.664 29.5797 45.9516 29.6586 46.1441 29.8141C46.3366 29.9673 46.4293 30.1898 46.4293 30.4888C46.4293 30.7879 46.3366 31.008 46.1441 31.1587V31.1564ZM43.7295 32.4053H45.5286C46.3532 32.4053 46.7525 32.7091 46.7525 33.3312C46.7525 33.9533 46.3509 34.2763 45.5286 34.2763H43.7295V32.4029V32.4053Z" fill="white"/>
<path d="M54.1865 28.8687C53.6494 28.5672 53.0409 28.4141 52.3731 28.4141C51.7053 28.4141 51.0969 28.5672 50.5598 28.8687C50.0226 29.1701 49.5949 29.5936 49.2906 30.1271C48.9841 30.6607 48.8296 31.266 48.8296 31.9263C48.8296 32.5867 48.9841 33.192 49.2906 33.7256C49.5972 34.2591 50.0226 34.685 50.5598 34.984C51.0969 35.2855 51.7053 35.4386 52.3731 35.4386C53.0409 35.4386 53.6494 35.2855 54.1865 34.984C54.7236 34.6826 55.1514 34.2615 55.4556 33.7303C55.7622 33.1992 55.9166 32.5915 55.9166 31.9263C55.9166 31.2612 55.7622 30.6535 55.4556 30.1224C55.149 29.5912 54.7212 29.1677 54.1865 28.8687ZM53.5139 33.9433C53.1788 34.1395 52.7938 34.24 52.3731 34.24C51.9525 34.24 51.5698 34.1395 51.2323 33.9433C50.8972 33.7471 50.6287 33.4696 50.4386 33.1178C50.246 32.7661 50.1486 32.3666 50.1486 31.9287C50.1486 31.4909 50.246 31.0913 50.4386 30.7396C50.6311 30.3879 50.8972 30.1104 51.2323 29.9142C51.5674 29.718 51.9525 29.6175 52.3731 29.6175C52.7938 29.6175 53.1764 29.718 53.5139 29.9142C53.849 30.1104 54.1175 30.3879 54.3101 30.7396C54.5026 31.0913 54.6 31.4933 54.6 31.9287C54.6 32.3642 54.5026 32.7661 54.3101 33.1178C54.1175 33.4696 53.8514 33.7471 53.5139 33.9433Z" fill="white"/>
<path d="M60.5296 31.7756C60.7863 31.6416 60.993 31.4597 61.1475 31.2372C61.3258 30.9788 61.4161 30.675 61.4161 30.3328C61.4161 29.9381 61.2901 29.5888 61.0429 29.2945C60.7981 29.0026 60.4654 28.7777 60.0543 28.6222C59.6455 28.4666 59.1916 28.3877 58.7067 28.3877C58.3336 28.3877 57.9533 28.4355 57.5778 28.5289C57.2023 28.6222 56.8411 28.7657 56.5036 28.9523L56.4632 28.9739L56.8815 30.0864L56.9362 30.0529C57.2023 29.8902 57.4899 29.7634 57.7941 29.6797C58.0959 29.5959 58.393 29.5529 58.6782 29.5529C59.0917 29.5529 59.4363 29.6366 59.7001 29.8041C59.9616 29.9692 60.0875 30.1917 60.0875 30.4884C60.0875 30.7348 59.9949 30.9262 59.8023 31.0698C59.6098 31.2157 59.3365 31.2899 58.9919 31.2899H57.5232V32.3761H59.0846C59.4863 32.3761 59.8023 32.4503 60.0281 32.5986C60.2491 32.7422 60.3561 32.9479 60.3561 33.2255C60.3561 33.5556 60.2064 33.8069 59.895 33.9959C59.5813 34.1873 59.1797 34.2854 58.7043 34.2854C58.3716 34.2854 58.0318 34.2327 57.6919 34.1298C57.3521 34.027 57.0407 33.8738 56.7627 33.68L56.7104 33.6418L56.2778 34.6562L56.3135 34.6801C56.6866 34.9314 57.0978 35.1228 57.5374 35.2496C57.9747 35.3764 58.4192 35.4386 58.8517 35.4386C59.3555 35.4386 59.8261 35.3572 60.2539 35.1945C60.6841 35.0318 61.0311 34.795 61.2901 34.4911C61.5515 34.1849 61.6822 33.8188 61.6822 33.4049C61.6822 32.991 61.5682 32.6608 61.3424 32.3689C61.1404 32.1081 60.8671 31.9072 60.5248 31.7756H60.5296Z" fill="white"/>
<path d="M68.9856 28.5098L66.4807 32.9073L63.9615 28.5385L63.9472 28.5098H62.8706V35.3453H64.1159V31.0842L66.1622 34.5749H66.7611L68.8074 31.0291L68.8169 35.3453H70.0694L70.0527 28.5098H68.9856Z" fill="white"/>
<path d="M76.5576 28.8687C76.0205 28.5672 75.412 28.4141 74.7442 28.4141C74.0764 28.4141 73.468 28.5672 72.9309 28.8687C72.3937 29.1701 71.966 29.5936 71.6617 30.1271C71.3552 30.6607 71.2007 31.266 71.2007 31.9263C71.2007 32.5867 71.3552 33.192 71.6617 33.7256C71.9683 34.2591 72.3937 34.685 72.9309 34.984C73.468 35.2855 74.0764 35.4386 74.7442 35.4386C75.412 35.4386 76.0205 35.2855 76.5576 34.984C77.0947 34.6826 77.5225 34.2615 77.8267 33.7303C78.1333 33.1992 78.2877 32.5915 78.2877 31.9263C78.2877 31.2612 78.1333 30.6535 77.8267 30.1224C77.5201 29.5912 77.0923 29.1677 76.5576 28.8687ZM75.885 33.9433C75.5499 34.1395 75.1649 34.24 74.7442 34.24C74.3235 34.24 73.9409 34.1395 73.6034 33.9433C73.2683 33.7471 72.9998 33.4696 72.8096 33.1178C72.6171 32.7661 72.5197 32.3666 72.5197 31.9287C72.5197 31.4909 72.6171 31.0913 72.8096 30.7396C73.0022 30.3879 73.2683 30.1104 73.6034 29.9142C73.9385 29.718 74.3235 29.6175 74.7442 29.6175C75.1649 29.6175 75.5475 29.718 75.885 29.9142C76.2201 30.1104 76.4886 30.3879 76.6811 30.7396C76.8737 31.0913 76.9711 31.4933 76.9711 31.9287C76.9711 32.3642 76.8737 32.7661 76.6811 33.1178C76.4886 33.4696 76.2225 33.7471 75.885 33.9433Z" fill="white"/>
<path d="M87.9034 28.5098H86.5036L84.9112 31.3258H83.8726V28.5098H82.5917V31.3258H81.5364L79.9536 28.5098H78.5514L80.4812 31.7828L78.4136 35.3453H79.9251L81.565 32.5101H82.5917V35.3453H83.8726V32.5101H84.9017L86.5297 35.3453H88.0436L85.9831 31.7924L87.9034 28.5098Z" fill="white"/>
<path d="M93.4671 31.2875H90.2206V28.5098H88.9111V35.3453H90.2206V32.4623H93.4671V35.3453H94.7766V28.5098H93.4671V31.2875Z" fill="white"/>
<path d="M101.279 28.8687C100.742 28.5672 100.134 28.4141 99.4659 28.4141C98.7981 28.4141 98.1897 28.5672 97.6525 28.8687C97.1154 29.1701 96.6876 29.5936 96.3834 30.1271C96.0768 30.6607 95.9224 31.266 95.9224 31.9263C95.9224 32.5867 96.0768 33.192 96.3834 33.7256C96.69 34.2591 97.1154 34.685 97.6525 34.984C98.1897 35.2855 98.7981 35.4386 99.4659 35.4386C100.134 35.4386 100.742 35.2855 101.279 34.984C101.816 34.6826 102.244 34.2615 102.548 33.7303C102.855 33.1992 103.009 32.5915 103.009 31.9263C103.009 31.2612 102.855 30.6535 102.548 30.1224C102.242 29.5912 101.814 29.1677 101.279 28.8687ZM100.607 33.9433C100.272 34.1395 99.8865 34.24 99.4659 34.24C99.0452 34.24 98.6626 34.1395 98.3251 33.9433C97.99 33.7471 97.7215 33.4696 97.5313 33.1178C97.3388 32.7661 97.2414 32.3666 97.2414 31.9287C97.2414 31.4909 97.3388 31.0913 97.5313 30.7396C97.7238 30.3879 97.99 30.1104 98.3251 29.9142C98.6602 29.718 99.0452 29.6175 99.4659 29.6175C99.8865 29.6175 100.269 29.718 100.607 29.9142C100.942 30.1104 101.21 30.3879 101.403 30.7396C101.595 31.0913 101.693 31.4933 101.693 31.9287C101.693 32.3642 101.595 32.7661 101.403 33.1178C101.21 33.4696 100.944 33.7471 100.607 33.9433Z" fill="white"/>
<path d="M106.234 29.9122C106.577 29.7161 106.969 29.6156 107.404 29.6156C108.069 29.6156 108.639 29.874 109.096 30.386L109.134 30.4266L109.987 29.594L109.956 29.5558C109.649 29.1849 109.269 28.9002 108.825 28.704C108.383 28.5102 107.886 28.4121 107.349 28.4121C106.688 28.4121 106.082 28.5652 105.55 28.8667C105.017 29.1682 104.59 29.5893 104.285 30.1204C103.979 30.6515 103.824 31.2593 103.824 31.9244C103.824 32.5895 103.979 33.1972 104.281 33.7284C104.583 34.2595 105.008 34.683 105.54 34.9821C106.073 35.2836 106.679 35.4367 107.339 35.4367C107.874 35.4367 108.373 35.3386 108.818 35.1448C109.264 34.951 109.647 34.6639 109.954 34.293L109.985 34.2548L109.131 33.4126L109.093 33.4556C108.637 33.9724 108.067 34.2356 107.401 34.2356C106.969 34.2356 106.574 34.1351 106.232 33.9389C105.89 33.7427 105.619 33.4676 105.429 33.1183C105.236 32.769 105.139 32.367 105.139 31.9244C105.139 31.4818 105.236 31.0798 105.429 30.7305C105.621 30.3812 105.89 30.106 106.232 29.9099L106.234 29.9122Z" fill="white"/>
<path d="M110.536 29.6749H112.675V35.3453H113.975V29.6749H116.124V28.5098H110.536V29.6749Z" fill="white"/>
<path d="M118.331 32.4431H121.461V31.3067H118.331V29.6654H121.861V28.5098H117.022V35.3453H121.989V34.1897H118.331V32.4431Z" fill="white"/>
<path d="M127.8 28.5098L124.396 33.1777V28.5098H123.106V35.3453H124.306L127.709 30.687V35.3453H129V28.5098H127.8Z" fill="white"/>
<path d="M127.674 26.9268H124.444V27.8886H127.674V26.9268Z" fill="white"/>
<path d="M70.5402 12.2412H69.3115V12.9686H70.5402V12.2412Z" fill="white"/>
<path d="M76.6193 12.2412H75.3906V12.9686H76.6193V12.2412Z" fill="white"/>
<path d="M46.4935 44.404C46.1632 44.6887 45.6974 44.8442 45.089 44.8681V45.2629H44.471V44.8681C43.865 44.837 43.3944 44.6791 43.0641 44.3992C42.7337 44.1193 42.5674 43.7317 42.5674 43.2412C42.5674 42.7507 42.7337 42.3631 43.0641 42.0808C43.3944 41.7985 43.865 41.6406 44.471 41.6095V41.2314H45.089V41.6095C45.695 41.6406 46.1632 41.7985 46.4935 42.0808C46.8239 42.3631 46.9879 42.7507 46.9879 43.2412C46.9879 43.7317 46.8239 44.1193 46.4935 44.404ZM43.5442 43.9972C43.7581 44.1791 44.067 44.2868 44.4734 44.3226V42.155C43.6392 42.2196 43.2233 42.5809 43.2233 43.2388C43.2233 43.5618 43.3303 43.8154 43.5442 43.9972ZM46.0254 43.9996C46.2369 43.8154 46.3438 43.5618 46.3438 43.234C46.3438 42.9062 46.2369 42.6526 46.023 42.4708C45.8091 42.289 45.4977 42.1837 45.089 42.155V44.3226C45.5001 44.2915 45.8115 44.1839 46.0254 43.9996Z" fill="white"/>
<path d="M48.485 44.9187C48.1903 44.7536 47.9573 44.524 47.791 44.2297C47.6222 43.9354 47.5391 43.6076 47.5391 43.2439C47.5391 42.8803 47.6222 42.5525 47.791 42.2582C47.9597 41.9639 48.1903 41.7342 48.485 41.5691C48.7797 41.4041 49.11 41.3203 49.4784 41.3203C49.8468 41.3203 50.1771 41.4041 50.4718 41.5691C50.7665 41.7342 50.997 41.9639 51.1658 42.2558C51.3345 42.5477 51.4177 42.8779 51.4177 43.2439C51.4177 43.61 51.3345 43.9402 51.1658 44.2321C50.997 44.524 50.7665 44.7536 50.4718 44.9187C50.1771 45.0838 49.8468 45.1676 49.4784 45.1676C49.11 45.1676 48.7797 45.0838 48.485 44.9187ZM50.1248 44.39C50.3173 44.2775 50.467 44.122 50.5764 43.921C50.6857 43.7201 50.7404 43.4952 50.7404 43.2463C50.7404 42.9975 50.6857 42.7726 50.5764 42.5716C50.467 42.3706 50.3149 42.2151 50.1248 42.1027C49.9323 41.9902 49.716 41.9352 49.476 41.9352C49.236 41.9352 49.0197 41.9902 48.8272 42.1027C48.6347 42.2151 48.485 42.3706 48.3756 42.5716C48.2663 42.7726 48.2116 42.9975 48.2116 43.2463C48.2116 43.4952 48.2663 43.7201 48.3756 43.921C48.485 44.122 48.6371 44.2775 48.8272 44.39C49.0173 44.5024 49.236 44.5575 49.476 44.5575C49.716 44.5575 49.9323 44.5024 50.1248 44.39Z" fill="white"/>
<path d="M54.4716 41.5349C54.7021 41.6425 54.8804 41.7957 55.0039 41.9942C55.1275 42.1928 55.1893 42.4297 55.1893 42.7048C55.1893 42.98 55.1275 43.212 55.0039 43.413C54.8804 43.614 54.7021 43.7671 54.4716 43.8748C54.2411 43.9825 53.9677 44.0351 53.6564 44.0351H52.8436V45.1141H52.1758V41.377H53.6564C53.9677 41.377 54.2411 41.4296 54.4716 41.5373V41.5349ZM54.2886 43.2527C54.4383 43.1235 54.5144 42.9417 54.5144 42.7024C54.5144 42.4632 54.4383 42.2813 54.2886 42.1521C54.1365 42.0229 53.9155 41.9607 53.6255 41.9607H52.8436V43.4441H53.6255C53.9178 43.4441 54.1389 43.3795 54.2886 43.2527Z" fill="white"/>
<path d="M58.9541 41.375L57.3903 44.392C57.2525 44.66 57.0885 44.8586 56.8984 44.9926C56.7082 45.1265 56.5015 45.1935 56.2781 45.1935C56.0998 45.1935 55.9239 45.1553 55.7481 45.0763L55.9121 44.5308C56.0523 44.5763 56.1687 44.6002 56.2614 44.6002C56.4777 44.6002 56.6559 44.4853 56.7962 44.2533L56.8532 44.1623L55.4177 41.375H56.1331L57.1978 43.569L58.2934 41.375H58.9517H58.9541Z" fill="white"/>
<path d="M62.8635 45.1117L62.8588 42.6354L61.6752 44.6859H61.3758L60.1922 42.6689V45.1141H59.5601V41.377H60.1114L61.5374 43.8485L62.9467 41.377H63.491L63.5005 45.1141H62.8635V45.1117Z" fill="white"/>
<path d="M68.5722 44.2485H66.7708L66.4166 45.1122H65.7274L67.3483 41.375H68.0066L69.6322 45.1122H68.9335L68.5722 44.2485ZM68.3512 43.703L67.6715 42.0688L66.9965 43.703H68.3488H68.3512Z" fill="white"/>
<path d="M70.7542 44.9187C70.4619 44.7536 70.2313 44.524 70.065 44.2321C69.8986 43.9402 69.8154 43.61 69.8154 43.2439C69.8154 42.8779 69.8986 42.5477 70.0673 42.2558C70.2361 41.9639 70.4666 41.7342 70.7589 41.5691C71.0513 41.4041 71.3792 41.3203 71.7429 41.3203C72.0376 41.3203 72.3061 41.3729 72.5509 41.4806C72.7933 41.5883 73.0001 41.7414 73.1688 41.9448L72.7363 42.3659C72.4749 42.074 72.154 41.928 71.7738 41.928C71.5266 41.928 71.3056 41.9831 71.1107 42.0955C70.9158 42.208 70.7637 42.3635 70.652 42.5621C70.5427 42.7606 70.488 42.9879 70.488 43.2392C70.488 43.4904 70.5427 43.7177 70.652 43.9162C70.7613 44.1148 70.9134 44.2703 71.1107 44.3828C71.3056 44.4952 71.5266 44.5503 71.7738 44.5503C72.154 44.5503 72.4749 44.4019 72.7363 44.1077L73.1688 44.5359C73.0001 44.7393 72.7933 44.8924 72.5485 45.0001C72.3037 45.1077 72.0328 45.1604 71.7381 45.1604C71.3745 45.1604 71.0465 45.0766 70.7542 44.9116V44.9187Z" fill="white"/>
<path d="M74.4212 44.9187C74.1289 44.7536 73.8983 44.524 73.732 44.2321C73.5656 43.9402 73.4824 43.61 73.4824 43.2439C73.4824 42.8779 73.5656 42.5477 73.7343 42.2558C73.9031 41.9639 74.1336 41.7342 74.4259 41.5691C74.7183 41.4041 75.0486 41.3203 75.4098 41.3203C75.7045 41.3203 75.9731 41.3729 76.2179 41.4806C76.4627 41.5883 76.6671 41.7414 76.8358 41.9448L76.4033 42.3659C76.1419 42.074 75.821 41.928 75.4407 41.928C75.1936 41.928 74.9726 41.9831 74.7777 42.0955C74.5828 42.208 74.4307 42.3635 74.319 42.5621C74.2097 42.7606 74.155 42.9879 74.155 43.2392C74.155 43.4904 74.2097 43.7177 74.319 43.9162C74.4283 44.1148 74.5804 44.2703 74.7777 44.3828C74.9749 44.4952 75.1936 44.5503 75.4407 44.5503C75.821 44.5503 76.1419 44.4019 76.4033 44.1077L76.8358 44.5359C76.6671 44.7393 76.4603 44.8924 76.2155 45.0001C75.9707 45.1077 75.6998 45.1604 75.4051 45.1604C75.0415 45.1604 74.7135 45.0766 74.4212 44.9116V44.9187Z" fill="white"/>
<path d="M77.4798 41.375H78.1381V44.0284L80.0727 41.375H80.6954V45.1122H80.037V42.4636L78.1025 45.1122H77.4798V41.375Z" fill="white"/>
<path d="M82.3948 44.9187C82.1025 44.7536 81.872 44.524 81.7056 44.2321C81.5392 43.9402 81.4561 43.61 81.4561 43.2439C81.4561 42.8779 81.5392 42.5477 81.708 42.2558C81.8767 41.9639 82.1072 41.7342 82.3996 41.5691C82.6919 41.4041 83.0199 41.3203 83.3835 41.3203C83.6782 41.3203 83.9467 41.3729 84.1915 41.4806C84.4339 41.5883 84.6407 41.7414 84.8095 41.9448L84.3769 42.3659C84.1155 42.074 83.7946 41.928 83.4144 41.928C83.1672 41.928 82.9462 41.9831 82.7513 42.0955C82.5564 42.208 82.402 42.3635 82.2926 42.5621C82.1833 42.7606 82.1286 42.9879 82.1286 43.2392C82.1286 43.4904 82.1833 43.7177 82.2926 43.9162C82.402 44.1148 82.5541 44.2703 82.7513 44.3828C82.9462 44.4952 83.1672 44.5503 83.4144 44.5503C83.7946 44.5503 84.1155 44.4019 84.3769 44.1077L84.8095 44.5359C84.6407 44.7393 84.4339 44.8924 84.1892 45.0001C83.9444 45.1077 83.6734 45.1604 83.3787 45.1604C83.0151 45.1604 82.6871 45.0766 82.3948 44.9116V44.9187Z" fill="white"/>
<path d="M88.2837 41.9631H87.0906V45.1117H86.4276V41.9631H85.2393V41.377H88.2837V41.9631Z" fill="white"/>
<path d="M88.9041 41.375H89.5624V44.0284L91.497 41.375H92.1197V45.1122H91.4613V42.4636L89.5268 45.1122H88.9041V41.375Z" fill="white"/>
<path d="M96.0102 43.4972C96.1314 43.6527 96.1908 43.8441 96.1908 44.0762C96.1908 44.404 96.0744 44.6576 95.8415 44.8394C95.6085 45.0213 95.2711 45.1122 94.829 45.1122H93.1202V41.375H94.7292C95.1332 41.375 95.4493 41.4587 95.6751 41.6262C95.9009 41.7937 96.0149 42.0306 96.0149 42.3368C96.0149 42.533 95.9698 42.7005 95.8795 42.844C95.7892 42.9876 95.6585 43.0953 95.485 43.1694C95.7155 43.234 95.889 43.3441 96.0102 43.4972ZM93.7786 42.9708H94.6745C94.8908 42.9708 95.0548 42.9254 95.1689 42.8369C95.283 42.7483 95.3376 42.6167 95.3376 42.4421C95.3376 42.2674 95.2806 42.1358 95.1689 42.0449C95.0548 41.954 94.8908 41.9085 94.6745 41.9085H93.7786V42.9708ZM95.5182 44.0236C95.5182 43.6599 95.2806 43.4781 94.8076 43.4781H93.7786V44.5786H94.8076C95.2806 44.5786 95.5182 44.3944 95.5182 44.0236Z" fill="white"/>
<path d="M100.172 41.375V45.1122H99.5038V43.5116H97.6405V45.1122H96.9727V41.375H97.6405V42.9182H99.5038V41.375H100.172Z" fill="white"/>
<path d="M103.82 42.9421C104.05 43.1431 104.167 43.4422 104.167 43.837C104.167 44.2317 104.041 44.5667 103.786 44.7844C103.532 45.0045 103.176 45.1122 102.717 45.1122H101.17V41.375H101.828V42.6407H102.826C103.259 42.6407 103.589 42.7412 103.822 42.9421H103.82ZM103.287 44.392C103.428 44.2676 103.499 44.0858 103.499 43.8465C103.499 43.3943 103.228 43.1694 102.686 43.1694H101.828V44.5786H102.686C102.948 44.5786 103.147 44.5164 103.287 44.392ZM104.687 41.375H105.346V45.1122H104.687V41.375Z" fill="white"/>
<path d="M106.819 41.375L107.667 42.6239L108.516 41.375H109.298L108.088 43.1694L109.395 45.1122H108.604L107.667 43.7508L106.736 45.1122H105.963L107.266 43.1957L106.047 41.375H106.819Z" fill="white"/>
<path d="M45.4858 48.7971H44.2928V51.9457H43.6297V48.7971H42.4414V48.2109H45.4858V48.7971Z" fill="white"/>
<path d="M48.8036 51.3639V51.9453H46.1038V48.2081H48.7323V48.7895H46.7716V49.7609H48.5113V50.3327H46.7716V51.3639H48.8036Z" fill="white"/>
<path d="M50.1466 48.2109L50.995 49.4599L51.8435 48.2109H52.6254L51.4157 50.0054L52.7228 51.9481H51.9314L50.995 50.5868L50.0634 51.9481H49.291L50.5934 50.0317L49.3742 48.2109H50.1466Z" fill="white"/>
<path d="M56.5349 48.2109V51.9481H55.867V50.3475H54.0038V51.9481H53.3359V48.2109H54.0038V49.7541H55.867V48.2109H56.5349Z" fill="white"/>
<path d="M58.2364 51.7515C57.9417 51.5864 57.7087 51.3567 57.5424 51.0624C57.3736 50.7682 57.2905 50.4404 57.2905 50.0767C57.2905 49.713 57.3736 49.3852 57.5424 49.091C57.7111 48.7967 57.9417 48.567 58.2364 48.4019C58.5311 48.2368 58.8614 48.1531 59.2298 48.1531C59.5982 48.1531 59.9285 48.2368 60.2232 48.4019C60.5179 48.567 60.7484 48.7967 60.9172 49.0886C61.0859 49.3805 61.1691 49.7106 61.1691 50.0767C61.1691 50.4428 61.0859 50.7729 60.9172 51.0648C60.7484 51.3567 60.5179 51.5864 60.2232 51.7515C59.9285 51.9166 59.5982 52.0003 59.2298 52.0003C58.8614 52.0003 58.5311 51.9166 58.2364 51.7515ZM59.8762 51.2227C60.0687 51.1103 60.2184 50.9548 60.3278 50.7538C60.4371 50.5528 60.4918 50.3279 60.4918 50.0791C60.4918 49.8303 60.4371 49.6054 60.3278 49.4044C60.2184 49.2034 60.0663 49.0479 59.8762 48.9354C59.6837 48.823 59.4674 48.768 59.2274 48.768C58.9874 48.768 58.7711 48.823 58.5786 48.9354C58.3861 49.0479 58.2364 49.2034 58.127 49.4044C58.0177 49.6054 57.963 49.8303 57.963 50.0791C57.963 50.3279 58.0177 50.5528 58.127 50.7538C58.2364 50.9548 58.3885 51.1103 58.5786 51.2227C58.7687 51.3352 58.9874 51.3902 59.2274 51.3902C59.4674 51.3902 59.6837 51.3352 59.8762 51.2227Z" fill="white"/>
<path d="M64.9551 48.2109V51.9481H64.2968V48.7995H62.878L62.8471 49.7326C62.8305 50.2566 62.7877 50.6801 62.7235 51.0055C62.6593 51.3308 62.5548 51.5797 62.4098 51.7471C62.2648 51.9146 62.0676 52.0008 61.8133 52.0008C61.723 52.0008 61.6017 51.984 61.4473 51.9481L61.4924 51.3452C61.5376 51.3596 61.5875 51.3667 61.6469 51.3667C61.856 51.3667 62.0034 51.2375 62.0913 50.9791C62.1793 50.7207 62.2339 50.314 62.2529 49.7589L62.3052 48.2109H64.9551Z" fill="white"/>
<path d="M66.6519 51.7515C66.3572 51.5864 66.1243 51.3567 65.958 51.0624C65.7892 50.7682 65.7061 50.4404 65.7061 50.0767C65.7061 49.713 65.7892 49.3852 65.958 49.091C66.1267 48.7967 66.3572 48.567 66.6519 48.4019C66.9466 48.2368 67.277 48.1531 67.6454 48.1531C68.0137 48.1531 68.3441 48.2368 68.6388 48.4019C68.9335 48.567 69.164 48.7967 69.3328 49.0886C69.5015 49.3805 69.5847 49.7106 69.5847 50.0767C69.5847 50.4428 69.5015 50.7729 69.3328 51.0648C69.164 51.3567 68.9335 51.5864 68.6388 51.7515C68.3441 51.9166 68.0137 52.0003 67.6454 52.0003C67.277 52.0003 66.9466 51.9166 66.6519 51.7515ZM68.2918 51.2227C68.4843 51.1103 68.634 50.9548 68.7434 50.7538C68.8527 50.5528 68.9073 50.3279 68.9073 50.0791C68.9073 49.8303 68.8527 49.6054 68.7434 49.4044C68.634 49.2034 68.4819 49.0479 68.2918 48.9354C68.0993 48.823 67.883 48.768 67.643 48.768C67.403 48.768 67.1867 48.823 66.9942 48.9354C66.8017 49.0479 66.6519 49.2034 66.5426 49.4044C66.4333 49.6054 66.3786 49.8303 66.3786 50.0791C66.3786 50.3279 66.4333 50.5528 66.5426 50.7538C66.6519 50.9548 66.8041 51.1103 66.9942 51.2227C67.1867 51.3352 67.403 51.3902 67.643 51.3902C67.883 51.3902 68.0993 51.3352 68.2918 51.2227Z" fill="white"/>
<path d="M72.7812 48.7967H70.9964L71.0012 51.9453H70.3428V48.2081H72.786L72.7812 48.7943V48.7967Z" fill="white"/>
<path d="M73.3989 48.2109H74.0572V50.8643L75.9918 48.2109H76.6145V51.9481H75.9562V49.2996L74.0216 51.9481H73.3989V48.2109Z" fill="white"/>
<path d="M77.6152 48.2109H78.2736V50.8643L80.2081 48.2109H80.8308V51.9481H80.1725V49.2996L78.2379 51.9481H77.6152V48.2109Z" fill="white"/>
<path d="M80.1178 47.4043H78.3472V47.8852H80.1178V47.4043Z" fill="white"/>
</g>
<defs>
<clipPath id="clip0_65_7602">
<rect width="129" height="52" fill="white"/>
</clipPath>
</defs>
</svg>
